<svg width="0" height="0" class="hidden">
  <symbol viewBox="0 0 16 16" xmlns="http://www.w3.org/2000/svg" id="search">
    <path fill-rule="evenodd" clip-rule="evenodd" d="M7.333 2.667a4.667 4.667 0 1 0 0 9.333 4.667 4.667 0 0 0 0-9.333zm-6 4.666a6 6 0 1 1 12 0 6 6 0 0 1-12 0z"></path>
    <path fill-rule="evenodd" clip-rule="evenodd" d="M10.629 10.629c.26-.26.682-.26.942 0l2.9 2.9a.667.667 0 1 1-.942.942l-2.9-2.9a.667.667 0 0 1 0-.942z"></path>
  </symbol>
  <symbol viewBox="0 0 8 8" fill="none" xmlns="http://www.w3.org/2000/svg" id="star">
    <path fill-rule="evenodd" clip-rule="evenodd" d="M4 .333c.127 0 .243.072.299.186l.952 1.93 2.13.311a.333.333 0 0 1 .185.569l-1.541 1.5.363 2.121a.333.333 0 0 1-.483.352L4 6.3 2.095 7.302a.333.333 0 0 1-.484-.352l.364-2.12L.434 3.329a.333.333 0 0 1 .184-.569l2.13-.311.953-1.93A.333.333 0 0 1 4 .333zM4 1.42L3.269 2.9a.333.333 0 0 1-.25.183l-1.636.24 1.183 1.152a.333.333 0 0 1 .096.295l-.28 1.627 1.463-.769a.333.333 0 0 1 .31 0l1.462.77-.279-1.628a.333.333 0 0 1 .096-.295l1.183-1.153-1.635-.239a.333.333 0 0 1-.251-.182L4 1.42z" fill="#F2994A"></path>
    <path d="M2.333 5L1 3l2-.333L4 1l1 1.667 2 .666-1.333 1.334L6 7 4 6 2 7l.333-2z" fill="#F2994A"></path>
  </symbol>
</svg>