<svg width="96" height="110" fill="none" xmlns="http://www.w3.org/2000/svg"><path d="M23.788 22.03c0 1.083-.203 2.017-.607 2.8a6.075 6.075 0 01-1.586 1.997 8.747 8.747 0 01-2.31 1.35 16.58 16.58 0 01-2.702.803 20.91 20.91 0 01-2.839.392c-.94.065-1.82.098-2.643.098-.81 0-1.651-.033-2.526-.098a24.848 24.848 0 01-2.584-.294 23.906 23.906 0 01-2.545-.567 15.12 15.12 0 01-2.37-.92L1.039 2.372c.73-.3 1.507-.567 2.33-.802A23.36 23.36 0 015.872.964 25.3 25.3 0 018.438.592C9.287.5 10.108.455 10.905.455c.927 0 1.86.059 2.8.176.953.117 1.866.313 2.74.587a11.8 11.8 0 012.448 1.077c.757.43 1.416.966 1.977 1.606a6.858 6.858 0 011.332 2.232c.326.848.49 1.827.49 2.936 0 .731-.105 1.416-.314 2.056a5.703 5.703 0 01-.9 1.723 5.73 5.73 0 01-1.43 1.312 6.33 6.33 0 01-1.899.783 8.326 8.326 0 012.31.979c.705.43 1.299.953 1.782 1.566a6.684 6.684 0 011.136 2.075c.274.77.41 1.593.41 2.467zm-9.946-11.16c0-.378-.078-.698-.235-.959a2.078 2.078 0 00-.587-.666 2.215 2.215 0 00-.744-.372 2.48 2.48 0 00-.705-.117c-.261 0-.516.04-.764.117-.248.079-.49.17-.724.275l-.118 4.346c.3 0 .673-.026 1.116-.078a4.69 4.69 0 001.273-.333c.418-.183.77-.444 1.057-.783.287-.353.43-.83.43-1.43zm-2.78 6.383c-.379 0-.744.04-1.097.117l-.078 4.464.568.118c.196.026.385.039.568.039.274 0 .574-.026.9-.078.326-.066.633-.183.92-.353.287-.182.523-.424.705-.724.196-.3.294-.698.294-1.194s-.098-.901-.294-1.214a2.038 2.038 0 00-.685-.725 2.244 2.244 0 00-.9-.352 4.615 4.615 0 00-.901-.098zm35.24-4.072c0 1.135-.078 2.27-.234 3.406-2.232.144-4.451.379-6.657.705l-6.617.94c.339.94.868 1.69 1.586 2.251.73.562 1.598.842 2.603.842.523 0 1.09-.098 1.704-.293a14.785 14.785 0 001.86-.725c.613-.3 1.2-.62 1.762-.96a33.81 33.81 0 001.449-.92l-.94 8.89a8.531 8.531 0 01-1.664.998c-.588.274-1.201.496-1.84.665-.64.17-1.286.294-1.939.372a16.1 16.1 0 01-1.919.118c-1.292 0-2.473-.176-3.543-.529a10.742 10.742 0 01-2.918-1.468 11.25 11.25 0 01-2.27-2.252 13.101 13.101 0 01-1.626-2.819 16.28 16.28 0 01-.979-3.23 17.925 17.925 0 01-.332-3.446c0-1.214.11-2.428.332-3.642.222-1.213.555-2.382.999-3.504a15.252 15.252 0 011.703-3.113A12.301 12.301 0 0129.23 2.94a10.743 10.743 0 013.094-1.683C33.485.853 34.764.65 36.16.65c1.162 0 2.219.163 3.172.49.966.312 1.82.756 2.565 1.33a8.708 8.708 0 011.957 2.017 11.106 11.106 0 011.37 2.584c.366.927.634 1.912.804 2.957.182 1.03.274 2.081.274 3.152zm-7.83-1.018a5.5 5.5 0 00-.118-1.116 3.405 3.405 0 00-.392-1.058 2.145 2.145 0 00-.685-.763c-.287-.209-.646-.313-1.077-.313-.522 0-.985.143-1.39.43-.391.274-.73.627-1.018 1.058a6.177 6.177 0 00-.705 1.37c-.182.496-.32.953-.41 1.37l5.794-.548v-.43zm29.19 6.813c0 1.788-.313 3.335-.94 4.64a8.812 8.812 0 01-2.544 3.21c-1.07.836-2.33 1.456-3.779 1.86-1.436.392-2.982.588-4.64.588a9.89 9.89 0 01-2.114-.254 27.804 27.804 0 01-2.31-.627 46.06 46.06 0 01-2.272-.822c-.718-.3-1.357-.581-1.918-.842l.861-7.675a14.02 14.02 0 003.68 1.527 16.429 16.429 0 004.895.49c.353-.026.686-.085.999-.176.326-.105.6-.255.822-.45.222-.197.333-.477.333-.843a.89.89 0 00-.235-.626 1.602 1.602 0 00-.607-.43 3.179 3.179 0 00-.842-.255 7.833 7.833 0 00-.92-.137c-.3-.026-.58-.04-.842-.04h-.626c-1.123 0-2.147-.176-3.074-.528a7.024 7.024 0 01-2.37-1.488 6.903 6.903 0 01-1.526-2.35c-.366-.926-.548-1.95-.548-3.073 0-1.54.306-2.917.92-4.131A9.682 9.682 0 0150.55 3.43a11.273 11.273 0 013.583-1.978 12.874 12.874 0 014.17-.685c.64 0 1.299.026 1.978.078a18.968 18.968 0 013.994.685c.64.183 1.246.412 1.82.686l-.744 7.949c-.887-.3-1.82-.549-2.8-.744a13.41 13.41 0 00-2.838-.314c-.17 0-.392.007-.666.02-.26 0-.541.02-.842.059-.287.026-.58.072-.88.137a3.41 3.41 0 00-.803.274 1.461 1.461 0 00-.568.43.931.931 0 00-.196.647c.013.287.117.509.313.665.21.157.47.274.783.353.327.065.68.098 1.058.098.391 0 .776-.007 1.155-.02.378-.026.73-.046 1.057-.059a5.85 5.85 0 01.803-.02c1.044.066 1.984.288 2.819.666.835.379 1.54.881 2.114 1.508a6.175 6.175 0 011.332 2.252c.313.86.47 1.814.47 2.858zM89.2 1.395l-.196 8.3-5.834.236-.705 18.168-8.262.431-.744-18.169-5.834.314.234-9.241 21.34-.04zM23.807 90.949c0 1.266-.189 2.388-.567 3.367-.38.98-.901 1.84-1.567 2.585a9.217 9.217 0 01-2.31 1.86c-.888.496-1.84.907-2.858 1.233-1.005.313-2.05.548-3.133.705a26.943 26.943 0 01-3.191.235v8.34H1.057v-4.346c.013-1.41.02-2.807.02-4.19.013-1.397.02-2.8.02-4.21l.039-4.365c.026-1.593.032-3.185.02-4.778-.014-1.592.019-3.197.097-4.816a36.35 36.35 0 015.012-1.116 35.165 35.165 0 015.169-.372c1.005 0 2.01.085 3.015.255a13.94 13.94 0 012.878.763c.926.353 1.781.797 2.565 1.332a8.568 8.568 0 012.055 1.88 8.57 8.57 0 011.351 2.505c.34.94.51 1.984.51 3.133zm-8.692.666c0-.849-.262-1.508-.784-1.978-.509-.483-1.174-.724-1.997-.724-.274 0-.56.026-.861.078-.287.04-.561.091-.822.157l-.235 5.717c.182.026.359.039.528.039h.529c.47 0 .92-.079 1.35-.235a3.713 3.713 0 001.175-.666c.34-.3.607-.646.803-1.038.209-.404.313-.855.313-1.35zm26.978 7.009l-.822 8.692-16.485 1.292.627-27.957h10.18l-1.448 17.973h7.948zm25.609 8.692l-9.711 1.253-1.175-4.424h-4.464l-.978 4.424-9.985-.979 7.792-26.078 10.885-.548 7.636 26.352zm-11.59-9.162l-1.489-6.814-1.448 6.814h2.936zm36.298.94c0 1.474-.02 2.936-.06 4.385a164.717 164.717 0 01-.136 4.346l-11.277-.195c.391-2.311.73-4.614 1.018-6.912.287-2.31.43-4.64.43-6.99a27.011 27.011 0 00-.097-2.094 19.46 19.46 0 00-.177-1.468 8.131 8.131 0 00-.293-1.39c-.118-.418-.268-.757-.45-1.019-.17-.274-.379-.41-.627-.41-.444 0-.822.13-1.136.391-.3.261-.554.6-.763 1.018a6.494 6.494 0 00-.47 1.37 15.626 15.626 0 00-.274 1.528c-.052.509-.091.992-.118 1.448-.013.444-.02.81-.02 1.097a623.69 623.69 0 00-.156 6.891c-.039 2.271-.091 4.569-.156 6.892l-9.985.431c.26-4.608.509-9.19.744-13.744.248-4.555.443-9.137.587-13.744l9.24-.47-.077 3.132c.365-.443.757-.861 1.174-1.253.431-.391.888-.724 1.37-.998a6.61 6.61 0 011.528-.666 5.793 5.793 0 011.723-.254c1.11 0 2.082.182 2.917.548a6.62 6.62 0 012.154 1.488c.6.626 1.103 1.37 1.507 2.232.405.848.731 1.755.979 2.721.248.966.437 1.977.568 3.035.13 1.044.215 2.075.254 3.093.052 1.018.079 2.004.079 2.957v2.603z" fill="#fff"/><path d="M21.732 41.395l-.196 8.3-5.834.236-.705 18.168-8.262.431-.744-18.169-5.834.314.235-9.241 21.34-.04zm24.923 12.608c0 1.188-.137 2.336-.411 3.446a13.219 13.219 0 01-1.194 3.093 12.595 12.595 0 01-1.88 2.663c-.73.796-1.56 1.481-2.486 2.055a12.22 12.22 0 01-2.996 1.351c-1.083.314-2.232.47-3.446.47-1.174 0-2.297-.15-3.367-.45-1.057-.3-2.05-.718-2.976-1.253a12.705 12.705 0 01-2.526-1.958 13.024 13.024 0 01-1.918-2.545 13.93 13.93 0 01-1.234-3.015 12.862 12.862 0 01-.43-3.348c0-1.136.137-2.245.41-3.328a13.77 13.77 0 011.175-3.094 13.618 13.618 0 011.88-2.662c.73-.81 1.547-1.508 2.447-2.095a11.97 11.97 0 012.957-1.37 11.29 11.29 0 013.348-.49c1.892 0 3.615.294 5.168.88 1.566.588 2.898 1.43 3.994 2.526 1.11 1.084 1.965 2.402 2.565 3.955.613 1.54.92 3.263.92 5.169zm-8.693.509c0-.561-.085-1.103-.254-1.625a4.206 4.206 0 00-.705-1.41 3.476 3.476 0 00-1.175-.998c-.457-.261-.985-.392-1.586-.392-.613 0-1.161.111-1.644.333-.483.222-.9.529-1.253.92-.34.379-.6.83-.783 1.351a4.774 4.774 0 00-.274 1.625c0 .548.078 1.097.235 1.645.156.548.391 1.044.704 1.488.314.444.699.803 1.155 1.077.47.274 1.012.41 1.626.41.613 0 1.161-.117 1.644-.352a3.873 3.873 0 001.253-.979c.34-.417.6-.894.783-1.429.183-.535.274-1.09.274-1.664zm33.401-13.078c-.587 4.594-1.09 9.169-1.508 13.724a1421.43 1421.43 0 00-1.194 13.724l-8.027.588.352-3.015c-.26.3-.567.561-.92.783-.34.222-.705.405-1.096.548-.392.13-.796.229-1.214.294a7.547 7.547 0 01-1.194.059 6.712 6.712 0 01-2.506-.51 8.721 8.721 0 01-2.154-1.33 10.89 10.89 0 01-1.762-1.94 14.283 14.283 0 01-1.331-2.329 14.804 14.804 0 01-.823-2.506 11.708 11.708 0 01-.274-2.467c0-1.175.02-2.388.06-3.641.051-1.266.136-2.532.254-3.798.117-1.267.267-2.52.45-3.76.196-1.24.437-2.427.724-3.563 1.593.078 3.192.15 4.797.215 1.605.066 3.204.085 4.797.06-.3 1.135-.6 2.277-.9 3.425a73.408 73.408 0 00-.784 3.446 44.548 44.548 0 00-.568 3.466 28.7 28.7 0 00-.215 3.524c0 .274.013.665.039 1.174.026.51.091 1.012.196 1.508.117.496.287.933.509 1.312.235.365.561.548.979.548.496 0 .94-.209 1.331-.627.392-.43.737-1.005 1.038-1.722.3-.718.554-1.547.763-2.487.222-.94.405-1.919.548-2.937.157-1.03.281-2.069.372-3.113a66.45 66.45 0 00.196-2.936c.052-.927.085-1.756.098-2.487.026-.73.04-1.299.04-1.703a14.59 14.59 0 00-.08-1.527 167.62 167.62 0 005.052.078h1.958c.666-.013 1.331-.04 1.997-.078zm24.12 8.693c0 1.018-.09 1.944-.274 2.78a8.114 8.114 0 01-.822 2.27 8.161 8.161 0 01-1.468 1.92c-.6.587-1.325 1.148-2.173 1.683l4.66 8.301-8.811 1.723-3.015-8.34-2.428.078-.352 8.145H72.38c.065-2.976.124-5.939.176-8.889.066-2.95.137-5.913.216-8.888l.078-4.464c.026-1.475.078-2.963.156-4.464.914-.34 1.815-.62 2.702-.842a23.908 23.908 0 012.663-.509c.9-.13 1.808-.215 2.721-.255a50.482 50.482 0 012.84-.078c1.487 0 2.923.209 4.306.627 1.397.404 2.63 1.018 3.7 1.84a9.164 9.164 0 012.566 3.074c.652 1.227.978 2.656.978 4.288zm-8.77.626c0-.548-.079-1.05-.236-1.508a3.066 3.066 0 00-.665-1.174c-.287-.34-.653-.6-1.097-.783-.43-.196-.94-.294-1.527-.294-.26 0-.515.02-.763.059-.248.026-.49.072-.725.137l-.313 7.283h.47c.561 0 1.129-.072 1.703-.215a4.977 4.977 0 001.566-.666c.47-.3.849-.685 1.136-1.155.3-.47.45-1.031.45-1.684z" fill="#EC1F46"/></svg>